# xmcd
#
# Track frame offsets: 
#        150
#        16117
#        38474
#        57898
#        76511
#        96257
#        114979
#        136610
#        155218
#        170753
#        190491
#        211575
#
# Disc length: 3030 seconds
#
# Revision: 1
# Processed by: cddbd v1.4PL0 Copyright (c) Steve Scherf et al.
# Submitted via: ExactAudioCopy v0.90b4
#
DISCID=8b0bd40c
DTITLE=Various Artist - Urban Essentials 2
DYEAR=2000
DGENRE=Rythm'n'Blues
TTITLE0=Smooth Approach - Everybody On The Dance Floor
TTITLE1=Hil St Soul - For Your Love
TTITLE2=Sounds Of Blackness - Try
TTITLE3=Virtue - Get Ready
TTITLE4=Reid - One More Time
TTITLE5=Freda Simone - All I Want
TTITLE6=Tony Momrell - Freetime
TTITLE7=Carl Henry - Sex You
TTITLE8=Peter Evans - Real Love
TTITLE9=Blacksmit - U Got That Something
TTITLE10=Ola - Heartbreak Ghetto
TTITLE11=Yana - Nothing Going On But The Rent
EXTD=
EXTT0=
EXTT1=
EXTT2=
EXTT3=
EXTT4=
EXTT5=
EXTT6=
EXTT7=
EXTT8=
EXTT9=
EXTT10=
EXTT11=
PLAYORDER=
